<svg width="64" height="64" viewBox="0 0 64 64" fill="none" xmlns="http://www.w3.org/2000/svg">
    <rect width="64" height="64" rx="16" fill="#D8F2EC"/>
    <path d="M8 49C19 44 38 45 56 51V64H8V49Z" fill="#70AD83"/>
    <path d="M12 48C22 45 41 47 55 54L52 61C37 55 23 54 13 57L12 48Z" fill="#DF5F48"/>
    <circle cx="21" cy="20" r="8" fill="#855A42"/>
    <circle cx="43" cy="19" r="7" fill="#855A42"/>
    <ellipse cx="31" cy="35" rx="22" ry="20" fill="#A87550"/>
    <ellipse cx="43" cy="39" rx="15" ry="12" fill="#C98F63"/>
    <circle cx="37" cy="30" r="2.5" fill="#342720"/>
    <ellipse cx="53" cy="39" rx="4" ry="3.5" fill="#4F352C"/>
    <path d="M50 45C46 48 41 47 39 45" stroke="#4F352C" stroke-width="2.5" stroke-linecap="round"/>
    <path d="M17 35C15 39 15 43 17 47" stroke="#C98F63" stroke-width="3" stroke-linecap="round"/>
</svg>
